<?xml version="1.0" encoding="utf-8"?>
<!-- Generator: Adobe Illustrator 16.0.4, SVG Export Plug-In . SVG Version: 6.00 Build 0)  -->
<!DOCTYPE svg PUBLIC "-//W3C//DTD SVG 1.1//EN" "http://www.w3.org/Graphics/SVG/1.1/DTD/svg11.dtd">
<svg version="1.1" id="Layer_1" xmlns="http://www.w3.org/2000/svg" xmlns:xlink="http://www.w3.org/1999/xlink" x="0px" y="0px"
	 width="642px" height="242px" viewBox="0 0 642 242" enable-background="new 0 0 642 242" xml:space="preserve">
<g>
	<path fill="none" stroke="#939598" stroke-width="3" stroke-miterlimit="10" d="M640.5,52.5c0,4.4-3.6,8-8,8H9.5c-4.4,0-8-3.6-8-8
		v-26c0-4.4,3.6-8,8-8h623c4.4,0,8,3.6,8,8V52.5z"/>
</g>
<g>
	<path fill="none" stroke="#939598" stroke-width="3" stroke-miterlimit="10" d="M640.5,142.5c0,4.4-3.6,8-8,8H9.5c-4.4,0-8-3.6-8-8
		v-26c0-4.4,3.6-8,8-8h623c4.4,0,8,3.6,8,8V142.5z"/>
</g>
<g>
	<path fill="none" stroke="#939598" stroke-width="3" stroke-miterlimit="10" d="M640.5,232.5c0,4.4-3.6,8-8,8H9.5c-4.4,0-8-3.6-8-8
		v-26c0-4.4,3.6-8,8-8h623c4.4,0,8,3.6,8,8V232.5z"/>
</g>
<text transform="matrix(1 0 0 1 21.5732 51.7666)" fill="#A7A9AC" stroke="#939598" stroke-miterlimit="10" font-family="'MyriadPro-Regular'" font-size="37.7631">0</text>
<text transform="matrix(1 0 0 1 77.4731 51.7666)" fill="#A7A9AC" stroke="#939598" stroke-miterlimit="10" font-family="'MyriadPro-Regular'" font-size="37.7631">1</text>
<text transform="matrix(1 0 0 1 133.373 51.7666)" fill="#A7A9AC" stroke="#939598" stroke-miterlimit="10" font-family="'MyriadPro-Regular'" font-size="37.7631">2</text>
<text transform="matrix(1 0 0 1 189.2734 51.7666)" fill="#A7A9AC" stroke="#939598" stroke-miterlimit="10" font-family="'MyriadPro-Regular'" font-size="37.7631">3</text>
<text transform="matrix(1 0 0 1 245.1733 51.7666)" fill="#A7A9AC" stroke="#939598" stroke-miterlimit="10" font-family="'MyriadPro-Regular'" font-size="37.7631">4</text>
<text transform="matrix(1 0 0 1 301.0732 51.7666)" fill="#A7A9AC" stroke="#939598" stroke-miterlimit="10" font-family="'MyriadPro-Regular'" font-size="37.7631">5</text>
<text transform="matrix(1 0 0 1 356.9736 51.7666)" fill="#A7A9AC" stroke="#939598" stroke-miterlimit="10" font-family="'MyriadPro-Regular'" font-size="37.7631">6</text>
<text transform="matrix(1 0 0 1 412.873 51.7666)" fill="#A7A9AC" stroke="#939598" stroke-miterlimit="10" font-family="'MyriadPro-Regular'" font-size="37.7631">7</text>
<text transform="matrix(1 0 0 1 468.7734 51.7666)" fill="#A7A9AC" stroke="#939598" stroke-miterlimit="10" font-family="'MyriadPro-Regular'" font-size="37.7631">8</text>
<text transform="matrix(1 0 0 1 524.6738 51.7666)" fill="#A7A9AC" stroke="#939598" stroke-miterlimit="10" font-family="'MyriadPro-Regular'" font-size="37.7631">9</text>
<text transform="matrix(1 0 0 1 580.5732 51.7666)" fill="#A7A9AC" stroke="#939598" stroke-miterlimit="10" font-family="'MyriadPro-Regular'" font-size="37.7631">10</text>
<text transform="matrix(1 0 0 1 21.5732 141.7666)" fill="#A7A9AC" stroke="#939598" stroke-miterlimit="10" font-family="'MyriadPro-Regular'" font-size="37.7631">0</text>
<text transform="matrix(1 0 0 1 77.4731 141.7666)" fill="#A7A9AC" stroke="#939598" stroke-miterlimit="10" font-family="'MyriadPro-Regular'" font-size="37.7631">1</text>
<text transform="matrix(1 0 0 1 133.373 141.7666)" fill="#A7A9AC" stroke="#939598" stroke-miterlimit="10" font-family="'MyriadPro-Regular'" font-size="37.7631">2</text>
<text transform="matrix(1 0 0 1 189.2734 141.7666)" fill="#A7A9AC" stroke="#939598" stroke-miterlimit="10" font-family="'MyriadPro-Regular'" font-size="37.7631">3</text>
<text transform="matrix(1 0 0 1 245.1733 141.7666)" fill="#A7A9AC" stroke="#939598" stroke-miterlimit="10" font-family="'MyriadPro-Regular'" font-size="37.7631">4</text>
<text transform="matrix(1 0 0 1 301.0732 141.7666)" fill="#A7A9AC" stroke="#939598" stroke-miterlimit="10" font-family="'MyriadPro-Regular'" font-size="37.7631">5</text>
<text transform="matrix(1 0 0 1 356.9736 141.7666)" fill="#A7A9AC" stroke="#939598" stroke-miterlimit="10" font-family="'MyriadPro-Regular'" font-size="37.7631">6</text>
<text transform="matrix(1 0 0 1 412.873 141.7666)" fill="#A7A9AC" stroke="#939598" stroke-miterlimit="10" font-family="'MyriadPro-Regular'" font-size="37.7631">7</text>
<text transform="matrix(1 0 0 1 468.7734 141.7666)" fill="#A7A9AC" stroke="#939598" stroke-miterlimit="10" font-family="'MyriadPro-Regular'" font-size="37.7631">8</text>
<text transform="matrix(1 0 0 1 524.6738 141.7666)" fill="#A7A9AC" stroke="#939598" stroke-miterlimit="10" font-family="'MyriadPro-Regular'" font-size="37.7631">9</text>
<text transform="matrix(1 0 0 1 580.5732 141.7666)" fill="#A7A9AC" stroke="#939598" stroke-miterlimit="10" font-family="'MyriadPro-Regular'" font-size="37.7631">10</text>
<text transform="matrix(1 0 0 1 21.5732 231.7666)" fill="#A7A9AC" stroke="#939598" stroke-miterlimit="10" font-family="'MyriadPro-Regular'" font-size="37.7631">0</text>
<text transform="matrix(1 0 0 1 77.4731 231.7666)" fill="#A7A9AC" stroke="#939598" stroke-miterlimit="10" font-family="'MyriadPro-Regular'" font-size="37.7631">1</text>
<text transform="matrix(1 0 0 1 133.373 231.7666)" fill="#A7A9AC" stroke="#939598" stroke-miterlimit="10" font-family="'MyriadPro-Regular'" font-size="37.7631">2</text>
<text transform="matrix(1 0 0 1 189.2734 231.7666)" fill="#A7A9AC" stroke="#939598" stroke-miterlimit="10" font-family="'MyriadPro-Regular'" font-size="37.7631">3</text>
<text transform="matrix(1 0 0 1 245.1733 231.7666)" fill="#A7A9AC" stroke="#939598" stroke-miterlimit="10" font-family="'MyriadPro-Regular'" font-size="37.7631">4</text>
<text transform="matrix(1 0 0 1 301.0732 231.7666)" fill="#A7A9AC" stroke="#939598" stroke-miterlimit="10" font-family="'MyriadPro-Regular'" font-size="37.7631">5</text>
<text transform="matrix(1 0 0 1 356.9736 231.7666)" fill="#A7A9AC" stroke="#939598" stroke-miterlimit="10" font-family="'MyriadPro-Regular'" font-size="37.7631">6</text>
<text transform="matrix(1 0 0 1 412.873 231.7666)" fill="#A7A9AC" stroke="#939598" stroke-miterlimit="10" font-family="'MyriadPro-Regular'" font-size="37.7631">7</text>
<text transform="matrix(1 0 0 1 468.7734 231.7666)" fill="#A7A9AC" stroke="#939598" stroke-miterlimit="10" font-family="'MyriadPro-Regular'" font-size="37.7631">8</text>
<text transform="matrix(1 0 0 1 524.6738 231.7666)" fill="#A7A9AC" stroke="#939598" stroke-miterlimit="10" font-family="'MyriadPro-Regular'" font-size="37.7631">9</text>
<text transform="matrix(1 0 0 1 580.5732 231.7666)" fill="#A7A9AC" stroke="#939598" stroke-miterlimit="10" font-family="'MyriadPro-Regular'" font-size="37.7631">10</text>
<polygon fill="#D1D3D4" stroke="#BCBEC0" stroke-width="3" stroke-miterlimit="10" points="489.2,1.5 495.9,30.8 478.4,48.9 
	461,30.8 467.7,1.5 "/>
<polygon fill="#D1D3D4" stroke="#BCBEC0" stroke-width="3" stroke-miterlimit="10" points="100,91.5 106.8,120.8 88.9,138.9 
	71,120.8 77.8,91.5 "/>
<polygon fill="#D1D3D4" stroke="#BCBEC0" stroke-width="3" stroke-miterlimit="10" points="321,181.5 327.8,210.8 309.9,228.9 
	292,210.8 298.8,181.5 "/>
</svg>
