<?xml version="1.0" encoding="utf-8"?>
<!-- Generator: Adobe Illustrator 16.0.4, SVG Export Plug-In . SVG Version: 6.00 Build 0)  -->
<!DOCTYPE svg PUBLIC "-//W3C//DTD SVG 1.1//EN" "http://www.w3.org/Graphics/SVG/1.1/DTD/svg11.dtd">
<svg version="1.1" xmlns="http://www.w3.org/2000/svg" xmlns:xlink="http://www.w3.org/1999/xlink" x="0px" y="0px" width="345.2px"
	 height="141px" viewBox="0 0 345.2 141" enable-background="new 0 0 345.2 141" xml:space="preserve">
<g id="Layer_1">
	<g>
		<path fill="none" stroke="#939598" stroke-width="3" stroke-miterlimit="10" d="M321,131.5c0,4.4-3.6,8-8,8H9.5c-4.4,0-8-3.6-8-8
			v-26c0-4.4,3.6-8,8-8H313c4.4,0,8,3.6,8,8V131.5z"/>
	</g>
	
		<text transform="matrix(0.9688 0 0 1 21.5732 130.7666)" fill="#A7A9AC" stroke="#939598" stroke-miterlimit="10" font-family="'MyriadPro-Regular'" font-size="37.7631" letter-spacing="43.4">BOARD</text>
	<polygon fill="#D1D3D4" stroke="#BCBEC0" stroke-width="3" stroke-miterlimit="10" points="107.2,80.5 113.9,109.8 96.4,127.9 
		79,109.8 85.7,80.5 	"/>
</g>
<g id="Layer_2">
	<g>
		<path fill="none" stroke="#939598" stroke-width="3" stroke-miterlimit="10" d="M321,52.5c0,4.4-3.6,8-8,8H9.5c-4.4,0-8-3.6-8-8
			v-26c0-4.4,3.6-8,8-8H313c4.4,0,8,3.6,8,8V52.5z"/>
	</g>
	
		<text transform="matrix(0.9688 0 0 1 21.5732 51.7666)" fill="#A7A9AC" stroke="#939598" stroke-miterlimit="10" font-family="'MyriadPro-Regular'" font-size="37.7631" letter-spacing="43.4">SCORE</text>
	<polygon fill="#D1D3D4" stroke="#BCBEC0" stroke-width="3" stroke-miterlimit="10" points="169,1.5 175.8,30.8 157.9,48.9 
		140,30.8 146.8,1.5 	"/>
</g>
</svg>
